<?xml version="1.0" encoding="UTF-8"?>
<svg id="Layer_2" data-name="Layer 2" xmlns="http://www.w3.org/2000/svg" viewBox="0 0 319.35 319.35">
  <defs>
    <style>
      .cls-1 {
        fill: #fff;
      }

      .cls-2 {
        fill: none;
      }
    </style>
  </defs>
  <g id="ELEMENTS">
    <rect class="cls-2" width="319.35" height="319.35"/>
    <g>
      <path class="cls-1" d="M268.37,69.39l-186.19-.73c-1.96-6.6-4.44-11.3-12.09-15.98-4.18-2.56-24.94-12.25-28.76-11.79-8.82,1.07-11.92,13.19-4.12,18.67,4.92,3.46,22.84,8.53,25.14,12.86,10.79,40.55,17.32,82.39,29.57,122.43,5.16,7.55,11.85,12.09,21.11,12.89,41.17,3.56,87.37-2.77,129.08,0,12.61-1.49,19.28-8.13,23.18-19.82,9.49-28.51,12.73-62.58,21.28-91.74.85-11.78-7.37-22.95-18.18-26.79ZM245.42,184.06l-2.88,3.12-128.42.46c-2.52-.41-4.99-1.81-5.54-4.46-8.1-31.17-13.69-63.2-21.25-94.54l176.8.99,2.39,4.62-21.1,89.81Z"/>
      <circle class="cls-1" cx="132.83" cy="252.96" r="25.52"/>
      <circle class="cls-1" cx="221.39" cy="253" r="25.48" transform="translate(-52.21 57.63) rotate(-13.28)"/>
    </g>
  </g>
</svg>