<?xml version="1.0" encoding="UTF-8"?>
<svg id="Layer_2" data-name="Layer 2" xmlns="http://www.w3.org/2000/svg" viewBox="0 0 65.78 74.98">
  <defs>
    <style>
      .cls-1 {
        fill: #6b39f1;
      }
    </style>
  </defs>
  <g id="Layer_1-2" data-name="Layer 1">
    <g>
      <path class="cls-1" d="M14.51,36.59c-.36,1.17-3.76-.68-4.54-1.09C-4.28,27.87-3.16,4.51,12.74.27c.5-.13,1.01-.2,1.53-.2L51.19,0c.59,0,1.18.06,1.76.19,4.65,1.06,8.52,4,10.8,8.21,2.73,5.05,1.71,11.97,2.03,17.53.05.25-.3.74-.45.74h-13.33c-.24,0-.44-.2-.44-.44v-10.67c0-.91-1.29-1.75-2.2-1.65-13.65,0-18.24,0-32.62,0-.72,0-2.21.5-2.21,1.35v21.33Z"/>
      <g>
        <path class="cls-1" d="M14.51,48.3v11.41c0,.83,1.75,1.45,2.51,1.34,14.1,0,19.25,0,32.02,0,1,0,2.51-.34,2.51-1.64v-21.04c0-1.18,3.66.63,4.16.88,8.96,4.42,10.89,12.53,9.76,21.94-.81,6.79-6.84,13.79-13.76,13.79-14.53,0-22.1-.15-38.4-.15-5.96-.65-13.02-8.34-13.02-14.24v-11.85s.41-.44.44-.44h13.78Z"/>
        <path class="cls-1" d="M33.47,21.63c.17.15,1.05,3.47,1.47,4.31,2.06,4.13,5.71,7.72,9.88,9.67.7.33,3.93,1.26,4.04,1.44.65,1-1.59,1.19-2.43,1.53-5.66,2.34-9.61,6.35-12.12,11.88-.35.77-.56,2.18-.83,2.68-.17.3-.53.28-.74.19s-1.47-3.71-1.82-4.4c-2.04-4.06-5.63-7.55-9.68-9.58-1.06-.53-3.05-.97-3.86-1.42-.32-.18-.29-.49-.21-.74s4.19-1.66,5.01-2.11c4.93-2.64,7.83-6.6,9.93-11.7.15-.37.37-2.58,1.36-1.75Z"/>
      </g>
    </g>
  </g>
</svg>