<?xml version="1.0" encoding="UTF-8"?>
<svg id="Layer_2" data-name="Layer 2" xmlns="http://www.w3.org/2000/svg" viewBox="0 0 703.24 74.98">
  <defs>
    <style>
      .cls-1 {
        fill: #746db1;
      }

      .cls-2 {
        fill: #fff;
      }
    </style>
  </defs>
  <g id="Layer_1-2" data-name="Layer 1">
    <g>
      <g>
        <path class="cls-1" d="M14.51,36.59c-.36,1.17-3.76-.68-4.54-1.09C-4.28,27.87-3.16,4.51,12.74.27c.5-.13,1.01-.2,1.53-.2L51.19,0c.59,0,1.18.06,1.76.19,4.65,1.06,8.52,4,10.8,8.21,2.73,5.05,1.71,11.97,2.03,17.53.05.25-.3.74-.45.74h-13.33c-.24,0-.44-.2-.44-.44v-10.67c0-.91-1.29-1.75-2.2-1.65-13.65,0-18.24,0-32.62,0-.72,0-2.21.5-2.21,1.35v21.33Z"/>
        <g>
          <path class="cls-1" d="M14.51,48.3v11.41c0,.83,1.75,1.45,2.51,1.34,14.1,0,19.25,0,32.02,0,1,0,2.51-.34,2.51-1.64v-21.04c0-1.18,3.66.63,4.16.88,8.96,4.42,10.89,12.53,9.76,21.94-.81,6.79-6.84,13.79-13.76,13.79-14.53,0-22.1-.15-38.4-.15-5.96-.65-13.02-8.34-13.02-14.24v-11.85s.41-.44.44-.44h13.78Z"/>
          <path class="cls-1" d="M33.47,21.63c.17.15,1.05,3.47,1.47,4.31,2.06,4.13,5.71,7.72,9.88,9.67.7.33,3.93,1.26,4.04,1.44.65,1-1.59,1.19-2.43,1.53-5.66,2.34-9.61,6.35-12.12,11.88-.35.77-.56,2.18-.83,2.68-.17.3-.53.28-.74.19s-1.47-3.71-1.82-4.4c-2.04-4.06-5.63-7.55-9.68-9.58-1.06-.53-3.05-.97-3.86-1.42-.32-.18-.29-.49-.21-.74s4.19-1.66,5.01-2.11c4.93-2.64,7.83-6.6,9.93-11.7.15-.37.37-2.58,1.36-1.75Z"/>
        </g>
      </g>
      <g>
        <path class="cls-2" d="M86.38,46.13c-.07-1.27.6-1.94,1.79-1.94h6.63c1.19,0,1.79.67,1.86,1.86.45,4.32,2.46,5.96,7.3,5.96h14.61c5.66,0,7.68-1.42,7.68-5.74s-1.94-5.29-6.93-5.66l-16.62-1.27c-11.48-.89-16.02-4.62-16.02-14.46s4.84-15.58,17.81-15.58h13.64c11.78,0,17.07,5.29,17.59,15.8.08,1.27-.6,1.94-1.79,1.94h-6.71c-1.19,0-1.79-.67-1.86-1.86-.45-4.32-2.46-5.96-7.23-5.96h-13.49c-5.74,0-7.75,1.34-7.75,5.74,0,4.1,1.94,5.14,6.93,5.52l16.62,1.27c11.33.89,16.1,4.85,16.1,14.61s-4.85,15.58-17.89,15.58h-14.68c-11.85,0-17.07-5.29-17.59-15.8Z"/>
        <path class="cls-2" d="M144.44,60.07V11.18c0-1.19.67-1.86,1.86-1.86h6.63c1.19,0,1.86.67,1.86,1.86v19.75h28.25V11.18c0-1.19.67-1.86,1.86-1.86h6.71c1.19,0,1.86.67,1.86,1.86v48.89c0,1.19-.67,1.86-1.86,1.86h-6.71c-1.19,0-1.86-.67-1.86-1.86v-19.97h-28.25v19.97c0,1.19-.67,1.86-1.86,1.86h-6.63c-1.19,0-1.86-.67-1.86-1.86Z"/>
        <path class="cls-2" d="M203.17,43.82V11.18c0-1.19.67-1.86,1.86-1.86h6.63c1.19,0,1.86.67,1.86,1.86v33.02c0,6.41,2.31,7.83,7.3,7.83h16.77c4.99,0,7.23-1.42,7.23-7.83V11.18c0-1.19.67-1.86,1.86-1.86h6.71c1.19,0,1.86.67,1.86,1.86v32.64c0,11.11-5.37,18.11-17.66,18.11h-16.77c-12.37,0-17.66-7.01-17.66-18.11Z"/>
        <path class="cls-2" d="M264.97,60.07V11.18c0-1.19.67-1.86,1.86-1.86h39.58c1.19,0,1.86.67,1.86,1.86v6.19c0,1.19-.67,1.86-1.86,1.86h-31.15v11.48h20.05c1.19,0,1.86.67,1.86,1.86v5.44c0,1.19-.67,1.86-1.86,1.86h-20.05v20.2c0,1.19-.67,1.86-1.86,1.86h-6.56c-1.19,0-1.86-.67-1.86-1.86Z"/>
        <path class="cls-2" d="M314.46,60.07V11.18c0-1.19.67-1.86,1.86-1.86h39.58c1.19,0,1.86.67,1.86,1.86v6.19c0,1.19-.67,1.86-1.86,1.86h-31.15v11.48h20.05c1.19,0,1.86.67,1.86,1.86v5.44c0,1.19-.67,1.86-1.86,1.86h-20.05v20.2c0,1.19-.67,1.86-1.86,1.86h-6.56c-1.19,0-1.86-.67-1.86-1.86Z"/>
        <path class="cls-2" d="M363.95,60.07V11.18c0-1.19.67-1.86,1.86-1.86h6.63c1.19,0,1.86.67,1.86,1.86v40.84h30.48c1.19,0,1.86.67,1.86,1.86v6.19c0,1.19-.67,1.86-1.86,1.86h-38.98c-1.19,0-1.86-.67-1.86-1.86Z"/>
        <path class="cls-2" d="M412.25,60.07V11.18c0-1.19.67-1.86,1.86-1.86h40.77c1.19,0,1.86.67,1.86,1.86v6.19c0,1.19-.67,1.86-1.86,1.86h-32.35v11.48h20.94c1.19,0,1.86.67,1.86,1.86v5.44c0,1.19-.67,1.86-1.86,1.86h-20.94v12.15h32.35c1.19,0,1.86.67,1.86,1.86v6.19c0,1.19-.67,1.86-1.86,1.86h-40.77c-1.19,0-1.86-.67-1.86-1.86Z"/>
      </g>
      <rect class="cls-1" x="489.3" y="4.81" width="2.56" height="65.36"/>
      <g>
        <path class="cls-2" d="M547.23,23.73v-8.92c0-1.28-.9-2.04-3.92-2.04s-3.92.69-3.92,1.97v7.63c0,7.29,21.44,5.92,21.44,20.52v8.89c0,7.76-3.17,12.4-17.52,12.4s-17.52-4.9-17.52-12.6v-8.7h13.53v8.92c0,1.28.9,2.04,4,2.04s4-.69,4-1.97v-7.63c0-7.29-21.39-5.92-21.39-20.52v-8.89c0-7.76,3.4-12.4,17.39-12.4s17.39,4.91,17.39,12.6v8.7h-13.47Z"/>
        <path class="cls-2" d="M594.42,14.18h-9.18v49.12h-13.53V14.18h-9.18V3.3h31.88v10.87Z"/>
        <path class="cls-2" d="M631.71,15.95v34.69c0,8.55-3.2,13.52-17.79,13.52s-17.79-4.98-17.79-13.52V15.95c0-8.55,3.2-13.52,17.79-13.52s17.79,4.98,17.79,13.52ZM613.92,13.37c-3.43,0-4.26,1.08-4.26,2.64v34.57c0,1.56.83,2.64,4.26,2.64s4.26-1.08,4.26-2.64V16.01c0-1.56-.82-2.64-4.26-2.64Z"/>
        <path class="cls-2" d="M656.54,63.3l-4.71-22.04h-3.24v22.04h-13.53V3.3h17.88c13.91,0,16.93,4.52,16.93,12.94v12.08c0,5.1-1.11,8.77-5.07,10.87l5.59,24.11h-13.85ZM648.58,30.38h4.36c2.71,0,3.4-.68,3.4-2.12v-11.96c0-1.36-.69-2.12-3.4-2.12h-4.36v16.2Z"/>
        <path class="cls-2" d="M673.76,3.3h28.73v10.87h-15.2v12.99h13.58v10.62h-13.58v14.63h15.95v10.87h-29.48V3.3Z"/>
      </g>
    </g>
  </g>
</svg>