<?xml version="1.0" encoding="UTF-8"?>
<svg id="Layer_2" data-name="Layer 2" xmlns="http://www.w3.org/2000/svg" viewBox="0 0 73.64 73.64">
  <defs>
    <style>
      .cls-1 {
        fill: #fff;
      }

      .cls-2 {
        fill: #2775ca;
      }
    </style>
  </defs>
  <g id="ELEMENTS">
    <g>
      <path class="cls-2" d="M36.82,73.64c20.41,0,36.82-16.41,36.82-36.82S57.23,0,36.82,0,0,16.41,0,36.82s16.41,36.82,36.82,36.82Z"/>
      <path class="cls-1" d="M46.95,42.65c0-5.37-3.22-7.21-9.67-7.98-4.6-.61-5.52-1.84-5.52-3.99s1.54-3.53,4.6-3.53c2.76,0,4.3.92,5.06,3.22.15.46.61.77,1.08.77h2.46c.61,0,1.08-.46,1.08-1.08v-.15c-.61-3.38-3.38-5.98-6.9-6.29v-3.68c0-.61-.46-1.08-1.23-1.23h-2.3c-.61,0-1.08.46-1.23,1.23v3.53c-4.6.61-7.52,3.68-7.52,7.52,0,5.06,3.07,7.06,9.51,7.82,4.3.77,5.68,1.69,5.68,4.14s-2.15,4.14-5.06,4.14c-3.99,0-5.37-1.69-5.83-3.99-.15-.61-.61-.92-1.08-.92h-2.61c-.61,0-1.08.46-1.08,1.08v.15c.61,3.84,3.07,6.6,8.13,7.36v3.68c0,.61.46,1.08,1.23,1.23h2.3c.61,0,1.08-.46,1.23-1.23v-3.68c4.6-.77,7.67-3.99,7.67-8.13h0Z"/>
      <path class="cls-1" d="M29,58.76c-11.97-4.3-18.1-17.64-13.65-29.46,2.3-6.44,7.36-11.35,13.65-13.65.61-.31.92-.77.92-1.54v-2.15c0-.61-.31-1.08-.92-1.23-.15,0-.46,0-.61.15C13.81,15.5,5.83,30.99,10.43,45.57c2.76,8.59,9.36,15.19,17.95,17.95.61.31,1.23,0,1.38-.61.15-.15.15-.31.15-.61v-2.15c0-.46-.46-1.08-.92-1.38ZM45.26,10.89c-.61-.31-1.23,0-1.38.61-.15.15-.15.31-.15.61v2.15c0,.61.46,1.23.92,1.54,11.97,4.3,18.1,17.64,13.65,29.46-2.3,6.44-7.36,11.35-13.65,13.65-.61.31-.92.77-.92,1.54v2.15c0,.61.31,1.08.92,1.23.15,0,.46,0,.61-.15,14.57-4.6,22.55-20.1,17.95-34.67-2.76-8.74-9.51-15.34-17.95-18.1h0Z"/>
    </g>
  </g>
</svg>